HIERARCHY
ROOT Hips
{
  OFFSET 0.0000 0.0000 0.0000
  CHANNELS 6 Xposition Yposition Zposition Zrotation Xrotation Yrotation
  JOINT LeftHip
  {
    OFFSET 3.4300 0.0000 -0.0000
    CHANNELS 3 Zrotation Xrotation Yrotation
    JOINT LeftKnee
    {
      OFFSET 0.0000 -18.4700 0.0000
      CHANNELS 3 Zrotation Xrotation Yrotation
      JOINT LeftAnkle
      {
        OFFSET -0.0000 -17.9500 0.0000
        CHANNELS 3 Zrotation Xrotation Yrotation
        End Site
        {
            OFFSET 0.0000 -3.1200 0.0000
        }
      }
    }
  }
  JOINT RightHip
  {
    OFFSET -3.4300 0.0000 -0.0000
    CHANNELS 3 Zrotation Xrotation Yrotation
    JOINT RightKnee
    {
      OFFSET 0.0000 -18.4700 0.0000
      CHANNELS 3 Zrotation Xrotation Yrotation
      JOINT RightAnkle
      {
        OFFSET -0.0000 -17.9500 0.0000
        CHANNELS 3 Zrotation Xrotation Yrotation
        End Site
        {
            OFFSET 0.0000 -3.1200 -0.0000
        }
      }
    }
  }
  JOINT Chest
  {
    OFFSET 0.0000 4.5700 -0.0000
    CHANNELS 3 Zrotation Xrotation Yrotation
    JOINT Chest2
    {
      OFFSET 0.0000 6.5700 -0.0000
      CHANNELS 3 Zrotation Xrotation Yrotation
      JOINT LeftCollar
      {
        OFFSET 1.0600 4.1900 1.7600
        CHANNELS 3 Zrotation Xrotation Yrotation
        JOINT LeftShoulder
        {
          OFFSET 5.8100 0.0000 -0.0000
          CHANNELS 3 Zrotation Xrotation Yrotation
          JOINT LeftElbow
          {
            OFFSET -0.0000 -12.0800 0.0000
            CHANNELS 3 Zrotation Xrotation Yrotation
            JOINT LeftWrist
            {
              OFFSET -0.0000 -9.8200 0.0000
              CHANNELS 3 Zrotation Xrotation Yrotation
              End Site
              {
                  OFFSET 0.0000 -7.3700 0.0000
              }
            }
          }
        }
      }
      JOINT RightCollar
      {
        OFFSET -1.0600 4.1900 1.7600
        CHANNELS 3 Zrotation Xrotation Yrotation
        JOINT RightShoulder
        {
          OFFSET -6.0600 -0.0000 -0.0000
          CHANNELS 3 Zrotation Xrotation Yrotation
          JOINT RightElbow
          {
            OFFSET 0.0000 -11.0800 0.0000
            CHANNELS 3 Zrotation Xrotation Yrotation
            JOINT RightWrist
            {
              OFFSET 0.0000 -9.8200 0.0000
              CHANNELS 3 Zrotation Xrotation Yrotation
              End Site
              {
                  OFFSET -0.0000 -7.1400 0.0000
              }
            }
          }
        }
      }
    }
    JOINT Neck
    {
      OFFSET 0.0000 10.6200 0.0000
      CHANNELS 3 Zrotation Xrotation Yrotation
      JOINT Head
      {
        OFFSET -0.0000 5.1900 0.0000
        CHANNELS 3 Zrotation Xrotation Yrotation
        End Site
        {
            OFFSET 0.0000 4.1400 -0.0000
        }
      }
    }
  }
}
MOTION
Frames:	15
Frame Time:	0.033333
44.1239 42.3272 4.1497 -59.20 -10.28 44.05 44.64 -55.28 9.46 3.14 30.88 -15.07 14.46 -0.11 0.05 -51.65 -36.95 -30.18 18.85 38.76 -6.48 11.60 -12.69 2.37 28.58 25.92 -30.99 0.00 0.00 0.00 -1.60 -0.24 5.91 94.40 2.13 26.47 21.08 -52.53 5.12 25.79 -23.62 5.86 -4.87 -0.05 -4.72 -15.17 -28.45 33.80 112.33 -82.82 90.31 -19.12 -22.51 -4.12 18.94 21.89 -21.16 24.04 -23.56 -13.53 
44.5166 42.7117 3.6795 -63.87 -8.38 40.54 52.92 -54.79 20.74 4.09 27.64 -18.17 14.64 1.52 0.10 -61.82 -30.15 -14.43 28.21 14.58 -13.95 6.57 -17.67 3.77 29.34 26.07 -29.12 0.00 0.00 0.00 -1.96 -0.42 7.68 95.23 6.36 24.53 22.97 -51.75 11.59 24.52 -24.48 5.76 -4.45 -0.06 -4.75 -17.98 -29.89 34.88 138.20 -80.75 115.37 -20.00 -22.21 -4.26 22.46 12.51 -20.81 18.14 -16.60 -13.80 
44.4435 42.5522 3.8905 -66.63 -8.11 41.87 59.49 -56.93 30.22 3.44 28.03 -22.18 14.35 1.35 0.33 -47.44 -16.10 11.80 -0.05 -5.56 -23.02 18.02 -10.36 1.50 30.74 24.53 -29.82 0.00 0.00 0.00 -2.74 -0.57 8.78 94.60 4.00 19.68 26.44 -47.90 15.18 23.30 -25.23 5.62 -2.19 -0.04 -4.12 -20.48 -31.13 35.07 142.35 -79.49 119.59 -21.73 -20.72 -4.34 24.36 12.40 -20.91 17.51 -16.60 -13.09 
44.2088 42.6929 4.3852 -68.54 -8.08 41.53 65.97 -55.44 36.34 -0.28 26.76 -21.02 13.18 1.64 0.09 -41.66 -10.95 9.23 -8.16 1.71 -18.55 23.12 -10.15 0.83 31.12 24.44 -28.34 0.00 0.00 0.00 -3.05 -0.49 7.90 91.78 2.38 17.21 23.84 -48.27 10.09 25.76 -23.65 5.86 -1.82 -0.04 -4.14 -20.43 -35.05 37.25 130.58 -80.78 107.01 -23.86 -20.02 -4.62 26.39 12.18 -21.43 16.73 -16.90 -12.75 
44.2899 43.1439 4.4150 -71.01 -6.68 39.99 69.03 -53.76 39.54 -0.14 22.62 -19.39 10.78 2.86 -0.10 -45.17 -8.22 -6.02 -7.06 8.50 -3.03 24.35 -11.66 1.42 30.08 24.09 -24.70 0.00 0.00 0.00 -4.31 -0.65 8.77 90.26 2.19 17.65 25.10 -48.23 11.10 25.43 -23.49 5.74 -3.56 -0.08 -4.98 -19.06 -36.14 40.18 149.54 -78.66 128.06 -23.66 -16.89 -3.92 28.06 7.32 -21.78 14.38 -13.28 -13.59 
44.2501 43.1311 4.7706 -71.95 -6.69 40.84 69.14 -54.97 41.31 3.07 22.03 -22.29 7.77 2.02 0.49 -50.93 0.63 -10.30 6.14 14.23 2.01 18.45 -8.07 1.27 28.67 24.72 -21.99 0.00 0.00 0.00 -4.46 -0.79 9.86 89.67 5.33 16.92 22.84 -49.88 12.35 27.86 -23.70 6.36 -0.72 -0.01 -3.67 -23.19 -35.81 36.70 146.86 -79.10 123.26 -22.63 -17.44 -3.85 30.57 3.17 -22.79 12.23 -10.65 -14.61 
44.3265 43.3336 5.3436 -73.05 -7.13 41.12 74.80 -53.54 48.32 -0.55 23.52 -25.05 8.58 0.88 0.33 -50.68 4.84 -6.29 7.30 28.71 0.24 20.44 -7.92 1.15 28.04 24.61 -19.36 0.00 0.00 0.00 -4.67 -0.80 9.84 87.57 5.84 13.99 21.59 -47.91 11.74 30.13 -24.63 7.16 2.16 0.11 -2.42 -26.68 -34.86 35.54 148.91 -79.39 127.09 -23.02 -17.31 -3.89 26.93 5.55 -22.54 16.27 -10.94 -15.61 
44.3266 43.4927 5.8921 -74.71 -6.69 41.02 79.76 -52.71 52.73 -2.30 24.67 -25.63 8.08 -0.57 0.35 -48.38 6.92 -4.32 8.00 43.89 1.43 22.57 -7.19 0.75 27.56 23.30 -17.51 0.00 0.00 0.00 -5.74 -1.06 11.32 87.10 5.78 11.70 24.18 -44.59 15.69 28.85 -25.73 7.14 -0.56 -0.01 -3.59 -21.86 -34.38 39.57 156.34 -77.53 136.58 -24.98 -15.56 -3.84 21.90 8.52 -21.17 21.10 -10.97 -16.15 
44.2407 43.5883 6.3543 -75.51 -5.99 40.55 82.14 -51.49 55.04 -2.88 24.82 -26.01 7.01 -1.61 0.33 -44.39 7.81 -3.69 5.10 60.16 2.14 25.73 -5.38 -0.46 26.59 22.14 -16.14 0.00 0.00 0.00 -5.52 -1.00 11.03 85.10 7.89 11.01 23.53 -43.53 15.08 29.38 -25.89 7.32 -0.69 -0.01 -3.66 -21.20 -34.88 39.84 150.61 -79.56 128.91 -24.02 -16.94 -3.99 17.68 10.67 -19.78 25.02 -11.22 -16.51 
44.1523 43.8167 6.7341 -76.05 -4.74 39.77 82.48 -49.71 56.07 -2.75 22.84 -26.23 5.33 -1.78 0.20 -43.56 8.12 -7.53 0.32 77.30 6.01 26.11 -3.53 -0.98 25.27 20.82 -14.62 0.00 0.00 0.00 -4.94 -0.90 10.49 83.83 9.98 10.75 23.15 -42.65 15.85 28.86 -26.25 7.28 -0.28 0.00 -3.48 -21.40 -34.42 39.20 148.05 -80.48 126.21 -22.74 -17.54 -3.89 17.83 12.86 -19.78 25.61 -12.88 -15.93 
44.0083 43.9434 7.0811 -77.04 -2.00 38.88 84.39 -48.36 59.18 -2.66 21.85 -25.81 4.01 -2.23 0.14 -44.87 7.49 -10.77 166.41 86.67 -154.83 25.55 -2.40 -0.89 23.63 18.46 -12.70 0.00 0.00 0.00 -4.61 -0.86 10.37 83.34 11.16 9.46 23.68 -40.26 18.68 27.45 -28.08 7.38 -0.60 -0.01 -3.61 -20.74 -33.90 39.14 149.49 -80.12 128.06 -22.47 -16.96 -3.73 17.14 14.12 -19.58 26.45 -13.87 -15.75 
43.9733 44.0175 7.1319 -76.68 0.82 37.77 84.48 -47.80 59.17 -2.29 22.07 -23.24 2.67 -3.15 0.08 -44.54 6.78 -12.07 177.99 71.88 -164.31 27.31 -2.69 -1.43 21.34 16.78 -11.35 0.00 0.00 0.00 -4.22 -0.78 9.93 82.60 11.92 8.18 23.33 -39.33 19.17 27.17 -28.62 7.44 -0.40 -0.00 -3.53 -21.45 -33.60 38.61 149.85 -79.85 128.16 -22.64 -16.45 -3.65 16.13 14.63 -19.23 27.20 -14.10 -15.79 
44.0507 44.2328 6.7953 -76.20 6.11 35.01 85.73 -45.98 58.83 -3.47 22.53 -17.52 0.37 -3.73 -0.14 -44.74 0.78 -16.19 -179.17 57.45 -169.46 27.66 -1.28 -2.14 18.99 13.04 -10.71 0.00 0.00 0.00 -6.88 -1.40 13.14 81.77 10.44 5.54 25.02 -38.90 19.81 27.23 -28.29 7.38 0.61 0.03 -3.17 -24.07 -30.81 39.06 155.80 -79.22 134.53 -23.22 -15.18 -3.48 9.23 19.44 -15.72 32.94 -16.34 -14.78 
44.2581 44.2829 6.1319 -75.52 12.28 31.82 86.71 -46.38 58.31 -1.20 24.67 -12.62 -4.12 -4.41 -0.31 -47.60 -8.79 -21.50 -179.89 45.98 -167.02 27.29 1.21 -3.67 17.74 9.98 -11.24 0.00 0.00 0.00 -8.13 -1.69 14.28 79.42 10.60 2.25 24.75 -33.60 22.16 28.14 -30.88 8.31 -0.74 -0.01 -3.67 -21.27 -33.64 39.51 109.43 -84.06 87.38 -22.74 -17.17 -3.81 2.72 21.17 -12.16 37.65 -18.32 -13.79 
44.5598 44.3678 5.4904 -72.97 17.68 28.93 85.79 -46.83 56.45 0.75 27.44 -9.39 -8.33 -5.35 -0.64 -51.06 -15.94 -24.90 178.68 39.93 -161.54 27.70 1.54 -4.18 14.80 7.79 -11.09 0.00 0.00 0.00 -6.47 -1.11 11.36 75.44 12.30 2.55 24.17 -32.12 20.55 27.45 -30.40 7.98 3.08 0.16 -2.06 -26.33 -34.37 35.86 109.23 -83.01 88.28 -25.52 -15.11 -3.82 3.58 20.00 -12.64 37.17 -18.79 -13.69 
